HIERARCHY
ROOT root
{
	OFFSET	0	13.1	24.9
	CHANNELS 6  Xposition Yposition Zposition Xrotation Yrotation Zrotation
	JOINT spine_1
	{
		OFFSET	0	9.99999	0
		CHANNELS 3  Xrotation Yrotation Zrotation
		JOINT spine_2
		{
			OFFSET	0	112	-10
			CHANNELS 3  Xrotation Yrotation Zrotation
			JOINT spine_3
			{
				OFFSET	0	206.5	19.3
				CHANNELS 3  Xrotation Yrotation Zrotation
				JOINT spine_4
				{
					OFFSET	0	110.4	14.6
					CHANNELS 3  Xrotation Yrotation Zrotation
					JOINT neck_1
					{
						OFFSET	0	71.8	-50.3
						CHANNELS 3  Xrotation Yrotation Zrotation
						JOINT neck_2
						{
							OFFSET	0	86.2	-25.8
							CHANNELS 3  Xrotation Yrotation Zrotation
							JOINT head_ee
							{
								OFFSET	0	179.8	-8.7
								CHANNELS 3  Xrotation Yrotation Zrotation
								End Site
								{
									OFFSET	1	0	0
								}
							}
						}
					}
					JOINT left_clavicle
					{
						OFFSET	-43.2	22.4	-70.8
						CHANNELS 3  Xrotation Yrotation Zrotation
						JOINT left_shoulder
						{
							OFFSET	-93.9	-5.79999	48.7
							CHANNELS 3  Xrotation Yrotation Zrotation
							JOINT left_elbow
							{
								OFFSET	-291.4	-30.8	15.2
								CHANNELS 3  Xrotation Yrotation Zrotation
								JOINT left_lowarm_twist
								{
									OFFSET	-110.7	-3.89999	13.6
									CHANNELS 3  Xrotation Yrotation Zrotation
									JOINT left_hand
									{
										OFFSET	-110.7	-3.89999	13.6
										CHANNELS 3  Xrotation Yrotation Zrotation
										JOINT left_ee
										{
											OFFSET	-80.8	-5.10001	12.1
											CHANNELS 3  Xrotation Yrotation Zrotation
											End Site
											{
												OFFSET	1	0	0
											}
										}
									}
								}
							}
						}
					}
					JOINT right_clavicle
					{
						OFFSET	43.2	22.4	-70.8
						CHANNELS 3  Xrotation Yrotation Zrotation
						JOINT right_shoulder
						{
							OFFSET	93.9	-5.79999	48.7
							CHANNELS 3  Xrotation Yrotation Zrotation
							JOINT right_elbow
							{
								OFFSET	291.4	-30.8	15.2
								CHANNELS 3  Xrotation Yrotation Zrotation
								JOINT right_lowarm_twist
								{
									OFFSET	110.7	-3.89999	13.6
									CHANNELS 3  Xrotation Yrotation Zrotation
									JOINT right_hand
									{
										OFFSET	110.7	-3.89999	13.6
										CHANNELS 3  Xrotation Yrotation Zrotation
										JOINT right_ee
										{
											OFFSET	80.8	-5.10001	12.1
											CHANNELS 3  Xrotation Yrotation Zrotation
											End Site
											{
												OFFSET	1	0	0
											}
										}
									}
								}
							}
						}
					}
				}
			}
		}
	}
	JOINT left_hip
	{
		OFFSET	-82.8	-127.5	0.300001
		CHANNELS 3  Xrotation Yrotation Zrotation
		JOINT left_knee
		{
			OFFSET	-28.2	-396.7	2.2
			CHANNELS 3  Xrotation Yrotation Zrotation
			JOINT left_ankle
			{
				OFFSET	-11.7	-411.3	35.4
				CHANNELS 3  Xrotation Yrotation Zrotation
				JOINT left_toes
				{
					OFFSET	0	-60	-88.6
					CHANNELS 3  Xrotation Yrotation Zrotation
					JOINT left_foot_ee
					{
						OFFSET	-22.5	-16.5	-42.2
						CHANNELS 3  Xrotation Yrotation Zrotation
						End Site
						{
							OFFSET	1	0	0
						}
					}
				}
			}
		}
	}
	JOINT right_hip
	{
		OFFSET	82.8	-127.5	0.300001
		CHANNELS 3  Xrotation Yrotation Zrotation
		JOINT right_knee
		{
			OFFSET	28.2	-396.7	2.2
			CHANNELS 3  Xrotation Yrotation Zrotation
			JOINT right_ankle
			{
				OFFSET	11.7	-411.3	35.4
				CHANNELS 3  Xrotation Yrotation Zrotation
				JOINT right_toes
				{
					OFFSET	0	-60	-88.6
					CHANNELS 3  Xrotation Yrotation Zrotation
					JOINT right_foot_ee
					{
						OFFSET	22.5	-16.5	-42.2
						CHANNELS 3  Xrotation Yrotation Zrotation
						End Site
						{
							OFFSET	1	0	0
						}
					}
				}
			}
		}
	}
}
MOTION
Frames: 8
Frame Time: 0.02
3177.02 653.055 -1669.29 -10.9154611571 54.0455382144 11.0890983531 1.65666 0.337426 0.847523 1.65702 0.282815 0.867275 1.66138 0.120505 0.904225 1.66034 0.261793 0.87385 -13.167 16.2043 -3.92204 -13.9703 33.2608 1.49574 -0.0 0.0 -0.0 2.51234 20.7826 6.05752 -36.5989 -26.1265 69.8805 0.390762 -10.9556 0.0374734 -37.8976 -2.7304 3.90561 -0.577962 5.5029 -1.48727 -0.0 0.0 -0.0 12.7444 24.0502 -25.3005 6.83099 32.5394 -64.4026 1.53646 37.2728 -0.518189 82.5407 4.13455 8.74645 2.66872 -8.50622 -21.3113 0.0 0.0 0.0 31.8236 5.28369 -15.7406 3.68157 -0.169021 -0.5395 -3.53122 -16.3923 0.574328 -19.5344 0.0 0.0 -0.0 0.0 -0.0 -5.53192 -11.2616 6.03433 -14.8538 -0.321431 -2.25045 36.4891 33.1009 5.78824 1.71913 -0.0 -0.0 0.0 0.0 0.0 
3121.70016909 653.95 -1665.84911231 -11.8367784177 54.3239613862 13.2169399138 1.55472 -0.0738262 0.832327 1.5551 -0.126638 0.825943 1.55326 -0.276149 0.788648 1.55242 -0.148135 0.82236 -12.9744 16.5129 -3.65163 -13.7812 33.6767 1.79965 -0.0 0.0 -0.0 2.8105 17.7914 6.38613 -33.5911 -26.7445 69.1833 0.398811 -11.1756 0.0390183 -37.248 -2.66335 3.85608 -0.604349 5.80893 -1.52835 -0.0 0.0 -0.0 11.924 24.0271 -23.4168 5.51785 32.455 -65.0314 1.5608 37.7076 -0.533006 82.4235 4.12076 8.74043 2.67964 -8.87684 -21.5152 0.0 0.0 0.0 31.6566 5.80558 -15.3816 0.127971 -0.00529075 -0.0189255 -3.14306 -16.3331 0.510495 -19.4129 0.0 0.0 -0.0 0.0 -0.0 -4.47651 -11.3305 7.69367 -14.9319 -0.321569 -2.26244 35.7433 32.5814 5.66513 1.12575 -0.0 -0.0 0.0 0.0 0.0 
3121.71322864 653.95 -1665.64521725 -11.8975052567 54.5306500127 13.2915998263 1.55472 -0.0738262 0.832327 1.5551 -0.126638 0.825943 1.55326 -0.276149 0.788648 1.55242 -0.148135 0.82236 -12.9744 16.5129 -3.65163 -13.7812 33.6767 1.79965 -0.0 0.0 -0.0 2.8105 17.7914 6.38613 -33.5911 -26.7445 69.1833 0.398811 -11.1756 0.0390183 -37.248 -2.66335 3.85608 -0.604349 5.80893 -1.52835 -0.0 0.0 -0.0 11.924 24.0271 -23.4168 5.51785 32.455 -65.0314 1.5608 37.7076 -0.533006 82.4235 4.12076 8.74043 2.67964 -8.87684 -21.5152 0.0 0.0 0.0 31.6566 5.80558 -15.3816 0.127971 -0.00529075 -0.0189255 -3.14306 -16.3331 0.510495 -19.4129 0.0 0.0 -0.0 0.0 -0.0 -4.47651 -11.3305 7.69367 -14.9319 -0.321569 -2.26244 35.7433 32.5814 5.66513 1.12575 -0.0 -0.0 0.0 0.0 0.0 
3121.72594582 653.95 -1665.45711963 -11.9542280949 54.7213280432 13.3611649726 1.55472 -0.0738262 0.832327 1.5551 -0.126638 0.825943 1.55326 -0.276149 0.788648 1.55242 -0.148135 0.82236 -12.9744 16.5129 -3.65163 -13.7812 33.6767 1.79965 -0.0 0.0 -0.0 2.8105 17.7914 6.38613 -33.5911 -26.7445 69.1833 0.398811 -11.1756 0.0390183 -37.248 -2.66335 3.85608 -0.604349 5.80893 -1.52835 -0.0 0.0 -0.0 11.924 24.0271 -23.4168 5.51785 32.455 -65.0314 1.5608 37.7076 -0.533006 82.4235 4.12076 8.74043 2.67964 -8.87684 -21.5152 0.0 0.0 0.0 31.6566 5.80558 -15.3816 0.127971 -0.00529075 -0.0189255 -3.14306 -16.3331 0.510495 -19.4129 0.0 0.0 -0.0 0.0 -0.0 -4.47651 -11.3305 7.69367 -14.9319 -0.321569 -2.26244 35.7433 32.5814 5.66513 1.12575 -0.0 -0.0 0.0 0.0 0.0 
3032.33516461 663.29 -1668.66637446 -9.45605814995 51.4203652926 10.2410628908 1.21004 0.0932364 1.18845 1.21082 0.0174291 1.19197 1.2113 -0.208747 1.17368 1.20938 -0.0207803 1.19192 -6.49648 17.4361 -0.193271 -6.4371 32.518 3.26972 -0.0 0.0 -0.0 1.16173 17.4753 3.83273 -25.8525 -30.8271 64.6696 0.665209 -18.2384 0.106779 -39.6501 -2.91403 4.03542 -1.46423 11.9378 -4.35035 -0.0 0.0 -0.0 10.8695 23.7122 -21.0501 2.03171 32.4252 -65.8483 1.39271 34.6002 -0.433804 81.774 4.04459 8.70659 2.3075 -16.2004 -21.3263 0.0 0.0 0.0 24.68 8.3311 -11.8875 1.75466 -0.0762229 -0.258453 6.19111 -16.4553 -0.979608 -20.4282 0.0 0.0 -0.0 0.0 -0.0 -4.76769 -4.10516 10.4029 -22.5008 -0.257557 -3.42117 34.5311 17.2766 4.72228 3.08934 -0.0 -0.0 0.0 0.0 0.0 
2975.17916706 678.282 -1675.21360187 -7.17206951227 47.4250698605 7.82327179825 0.883867 -0.229939 1.0777 0.884463 -0.298046 1.06088 0.878951 -0.499415 0.982295 0.877763 -0.338021 1.04883 -4.56434 18.561 2.51831 -4.28093 32.2625 5.6485 -0.0 0.0 -0.0 1.27307 17.3328 3.99263 -19.7725 -31.4178 62.8323 0.702368 -19.1845 0.1187 -41.2811 -3.08843 4.15114 -2.19303 16.5167 -6.71658 -0.0 0.0 -0.0 10.0957 23.4026 -19.337 -2.60455 31.8193 -66.0745 1.38098 34.374 -0.42716 80.9547 3.94906 8.66267 1.84257 -20.0731 -19.4429 0.0 0.0 0.0 16.2606 10.8291 -7.53728 7.37834 -0.373339 -1.06943 10.6369 -15.9133 -1.64802 -18.7748 0.0 0.0 -0.0 0.0 -0.0 -2.05505 5.77224 11.2442 -33.4785 0.10481 -5.06438 32.7543 2.75039 4.22225 2.70944 -0.0 -0.0 0.0 0.0 0.0 
2975.19921155 678.282 -1675.86116802 -7.14721088634 47.242672155 7.7894650873 0.883867 -0.229939 1.0777 0.884463 -0.298046 1.06088 0.878951 -0.499415 0.982295 0.877763 -0.338021 1.04883 -4.56434 18.561 2.51831 -4.28093 32.2625 5.6485 -0.0 0.0 -0.0 1.27307 17.3328 3.99263 -19.7725 -31.4178 62.8323 0.702368 -19.1845 0.1187 -41.2811 -3.08843 4.15114 -2.19303 16.5167 -6.71658 -0.0 0.0 -0.0 10.0957 23.4026 -19.337 -2.60455 31.8193 -66.0745 1.38098 34.374 -0.42716 80.9547 3.94906 8.66267 1.84257 -20.0731 -19.4429 0.0 0.0 0.0 16.2606 10.8291 -7.53728 7.37834 -0.373339 -1.06943 10.6369 -15.9133 -1.64802 -18.7748 0.0 0.0 -0.0 0.0 -0.0 -2.05505 5.77224 11.2442 -33.4785 0.10481 -5.06438 32.7543 2.75039 4.22225 2.70944 -0.0 -0.0 0.0 0.0 0.0 
2975.23732151 678.282 -1676.94255255 -7.10623372309 46.938016959 7.73351828133 0.883867 -0.229939 1.0777 0.884463 -0.298046 1.06088 0.878951 -0.499415 0.982295 0.877763 -0.338021 1.04883 -4.56434 18.561 2.51831 -4.28093 32.2625 5.6485 -0.0 0.0 -0.0 1.27307 17.3328 3.99263 -19.7725 -31.4178 62.8323 0.702368 -19.1845 0.1187 -41.2811 -3.08843 4.15114 -2.19303 16.5167 -6.71658 -0.0 0.0 -0.0 10.0957 23.4026 -19.337 -2.60455 31.8193 -66.0745 1.38098 34.374 -0.42716 80.9547 3.94906 8.66267 1.84257 -20.0731 -19.4429 0.0 0.0 0.0 16.2606 10.8291 -7.53728 7.37834 -0.373339 -1.06943 10.6369 -15.9133 -1.64802 -18.7748 0.0 0.0 -0.0 0.0 -0.0 -2.05505 5.77224 11.2442 -33.4785 0.10481 -5.06438 32.7543 2.75039 4.22225 2.70944 -0.0 -0.0 0.0 0.0 0.0 
